<?xml version="1.0" standalone="no"?>
<!DOCTYPE svg PUBLIC "-//W3C//DTD SVG 20010904//EN"
 "http://www.w3.org/TR/2001/REC-SVG-20010904/DTD/svg10.dtd">
<svg version="1.0" xmlns="http://www.w3.org/2000/svg"
 width="564.000000pt" height="564.000000pt" viewBox="0 0 564.000000 564.000000"
 preserveAspectRatio="xMidYMid meet">
<metadata>
Created by potrace 1.11, written by Peter Selinger 2001-2013
</metadata>
<g transform="translate(0.000000,564.000000) scale(0.100000,-0.100000)"
fill="#000000" stroke="none">
<path d="M2580 4905 c-8 -2 -67 -11 -130 -20 -210 -30 -409 -86 -637 -180 -80
-32 -294 -146 -332 -176 -13 -11 -28 -19 -33 -19 -5 0 -37 -22 -71 -48 -34
-27 -69 -53 -79 -58 -9 -5 -34 -25 -55 -44 -21 -19 -72 -63 -113 -97 -92 -76
-350 -356 -350 -380 0 -5 -15 -27 -33 -49 -41 -49 -87 -117 -87 -129 0 -5 -7
-16 -16 -26 -26 -28 -60 -93 -164 -314 -16 -33 -34 -80 -41 -105 -7 -25 -16
-49 -19 -55 -11 -16 -73 -231 -86 -300 -2 -11 -6 -31 -8 -45 -3 -14 -8 -43
-11 -65 -4 -22 -12 -78 -19 -125 -25 -156 -19 -510 10 -670 2 -14 9 -52 14
-85 5 -33 14 -78 19 -100 6 -22 14 -61 20 -86 5 -26 28 -100 51 -165 23 -66
42 -123 44 -129 1 -5 10 -24 19 -42 9 -18 17 -39 17 -48 0 -8 4 -15 8 -15 5 0
21 -24 36 -52 46 -90 157 -220 245 -286 45 -34 86 -62 90 -62 5 0 14 -7 21
-15 7 -9 27 -22 44 -29 17 -7 47 -21 66 -29 156 -68 268 -83 610 -81 151 1
822 4 1490 8 1153 7 1376 12 1403 35 7 5 14 9 17 9 8 -2 80 22 120 39 72 30
155 79 221 129 83 64 249 248 249 277 0 9 5 19 11 23 13 8 79 146 79 166 0 8
4 18 8 23 12 13 76 223 96 310 37 165 57 318 63 485 5 155 -5 347 -22 430 -3
14 -12 66 -19 115 -21 134 -87 358 -147 500 -44 103 -138 290 -166 332 -14 20
-29 46 -34 57 -5 12 -23 39 -40 61 -16 22 -42 58 -57 80 -51 76 -107 139 -273
305 -176 173 -240 232 -294 265 -18 11 -60 39 -94 63 -33 23 -63 42 -67 42 -4
0 -15 7 -25 16 -10 9 -31 23 -48 32 -302 163 -561 254 -881 308 -87 15 -575
30 -620 19z m495 -181 c89 -7 295 -48 408 -80 80 -23 273 -96 322 -121 11 -6
38 -19 60 -30 122 -61 269 -152 405 -254 89 -67 341 -314 402 -395 144 -191
194 -270 284 -454 71 -146 82 -171 98 -225 8 -27 25 -77 36 -110 58 -164 101
-463 101 -695 -1 -147 -23 -378 -46 -468 -7 -31 -21 -88 -31 -127 -38 -158
-114 -349 -173 -435 -58 -85 -251 -260 -286 -260 -5 0 -16 -6 -24 -13 -27 -23
-158 -66 -248 -82 -84 -15 -333 -21 -333 -9 0 4 21 25 46 47 64 56 200 217
267 315 31 46 57 86 57 89 0 3 14 25 30 50 17 24 30 48 30 53 0 5 9 26 20 46
12 20 38 82 59 138 118 315 153 642 101 941 -5 33 -12 74 -14 90 -2 17 -5 30
-6 30 -1 0 -3 7 -5 15 -17 82 -63 227 -90 287 -8 17 -15 36 -15 42 0 6 -11 29
-25 51 -14 22 -25 46 -25 54 0 8 -5 18 -10 21 -6 3 -19 26 -30 50 -11 24 -25
47 -30 50 -6 4 -17 21 -25 38 -8 18 -29 51 -47 74 -18 22 -53 67 -77 100 -58
77 -191 208 -266 263 -33 24 -67 50 -75 57 -13 13 -52 39 -101 68 -9 6 -23 16
-31 23 -22 18 -131 72 -146 72 -7 0 -15 7 -18 15 -4 8 -12 15 -20 15 -7 0 -37
11 -66 24 -273 124 -684 172 -1013 118 -135 -22 -273 -57 -289 -73 -6 -5 -16
-9 -24 -9 -18 0 -133 -45 -207 -82 -161 -80 -244 -136 -400 -270 -43 -38 -82
-68 -86 -68 -5 0 -26 -24 -48 -52 -21 -29 -57 -73 -80 -98 -88 -95 -181 -243
-262 -415 -143 -305 -196 -684 -145 -1035 16 -113 49 -257 71 -305 7 -16 16
-45 20 -62 3 -18 11 -35 16 -38 5 -4 9 -13 9 -22 0 -15 71 -166 103 -218 104
-173 168 -256 301 -392 49 -51 88 -94 85 -97 -2 -3 -81 -6 -174 -7 -165 -2
-172 -1 -260 29 -49 16 -119 46 -154 65 -83 45 -197 141 -254 214 -51 64 -138
234 -157 303 -7 25 -15 50 -20 55 -4 6 -11 26 -15 45 -3 19 -15 64 -25 100
-89 309 -100 720 -29 1065 30 147 52 237 68 270 5 11 15 38 22 60 33 110 166
374 254 504 107 160 174 240 314 380 115 113 249 231 264 231 4 0 33 20 64 44
32 24 72 51 88 60 17 9 53 30 80 47 28 16 57 32 65 36 8 3 47 21 85 40 39 20
88 42 110 50 136 51 179 66 254 89 267 79 580 107 906 78z m-909 -1285 c109
-41 206 -144 256 -274 20 -53 23 -77 22 -200 0 -127 -3 -146 -26 -206 -52
-131 -135 -218 -261 -272 -67 -29 -81 -31 -192 -31 -104 -1 -128 3 -180 23
-126 50 -221 147 -270 276 -25 63 -27 83 -27 195 0 108 3 135 25 198 47 131
137 232 255 284 109 48 281 51 398 7z m1463 -164 c43 -99 84 -197 91 -219 l12
-38 28 68 c15 38 57 137 93 219 l66 150 115 3 c64 1 116 0 116 -4 0 -3 -72
-150 -160 -325 l-160 -318 0 -170 0 -171 -110 0 -110 0 0 173 0 173 -116 234
c-131 265 -194 397 -194 405 0 3 56 4 126 3 l125 -3 78 -180z m-779 -234 l63
-129 66 129 66 129 118 0 118 0 -115 -170 -115 -170 91 -142 c50 -79 101 -160
115 -181 l24 -38 -127 3 -127 3 -64 122 -64 122 -64 -122 -64 -122 -126 -3
-127 -3 116 170 c64 94 116 174 116 179 0 4 -46 80 -101 167 -56 88 -103 165
-106 172 -4 10 22 13 119 13 l124 0 64 -129z m-957 -1250 c25 -10 27 -15 27
-66 0 -30 -2 -55 -4 -55 -2 0 -20 7 -40 15 -50 21 -153 22 -191 2 -65 -33 -95
-86 -95 -168 0 -91 40 -148 118 -169 23 -6 58 -8 77 -4 35 6 35 6 35 60 l0 54
-55 0 -55 0 0 50 0 50 115 0 115 0 0 -139 0 -139 -42 -17 c-65 -27 -194 -31
-263 -10 -108 34 -175 132 -175 253 0 157 91 265 250 296 37 7 151 -1 183 -13z
m2196 -1 c17 -9 21 -20 21 -60 0 -28 -2 -50 -4 -50 -2 0 -23 7 -46 15 -105 37
-205 0 -170 -64 5 -11 48 -38 94 -60 46 -22 94 -53 109 -70 74 -88 30 -221
-84 -251 -50 -14 -189 -9 -231 8 -26 11 -28 15 -28 71 l0 60 46 -24 c60 -32
150 -35 185 -6 20 16 22 23 14 47 -8 23 -28 38 -95 71 -48 24 -97 56 -112 74
-74 88 -29 212 89 245 54 16 179 12 212 -6z m-1723 -60 c12 -36 54 -155 93
-265 39 -109 71 -203 71 -207 0 -4 -29 -8 -64 -8 l-65 0 -18 58 -18 57 -101 3
-101 3 -18 -61 -18 -60 -64 0 c-34 0 -63 3 -63 8 0 4 44 128 97 275 l98 268
74 -3 74 -3 23 -65z m466 -62 c26 -73 56 -163 68 -200 l22 -66 67 196 66 197
88 3 87 3 0 -276 0 -275 -60 0 -60 0 0 208 0 207 -38 -110 c-21 -60 -54 -154
-72 -207 l-33 -98 -51 0 -51 0 -68 198 c-38 108 -72 205 -76 216 -4 10 -5 -79
-3 -198 l4 -216 -56 0 -56 0 0 275 0 275 88 0 88 0 46 -132z m848 82 l0 -49
-97 -3 -98 -3 0 -60 0 -60 88 -3 87 -3 0 -44 0 -44 -87 -3 -88 -3 -3 -62 -3
-63 106 0 105 0 0 -50 0 -50 -165 0 -165 0 0 275 0 275 160 0 160 0 0 -50z"/>
<path d="M1873 3262 c-54 -29 -94 -72 -121 -130 -24 -51 -27 -68 -27 -172 0
-99 3 -122 23 -165 58 -126 176 -182 299 -141 118 39 182 168 170 343 -10 137
-62 230 -151 267 -51 21 -152 20 -193 -2z"/>
<path d="M2228 1584 l-34 -109 64 -3 c36 -2 66 -1 69 2 3 2 -11 52 -30 111
l-35 107 -34 -108z"/>
</g>
</svg>
